<svg width="150" height="44" viewBox="0 0 150 44" fill="none" xmlns="http://www.w3.org/2000/svg">
<path d="M10.7061 1.00006C11.0972 1.00006 11.4713 1.13806 11.8233 1.41184C12.2137 1.64632 12.5088 1.93761 12.7041 2.28912L23.0274 25.8754C23.2228 26.2268 23.4776 26.4016 23.7901 26.4018C24.1027 26.4018 24.3573 26.2268 24.5528 25.8754L34.8187 2.28912C35.0143 1.93734 35.2905 1.6464 35.6423 1.41184C36.0329 1.1384 36.4225 1.00037 36.8132 1.00006H46.5528C46.9824 1.00006 47.2953 1.17536 47.4909 1.52642C47.6865 1.83931 47.7082 2.15527 47.5518 2.46816L29.6589 42.6547C29.4633 43.0065 29.1689 43.3192 28.778 43.5928C28.426 43.8275 28.052 43.9437 27.6608 43.9437H19.8584C19.4682 43.9435 19.0778 43.8267 18.6875 43.5928C18.3358 43.3192 18.0595 43.0064 17.864 42.6547L0.146519 2.7009C-0.0487417 2.27093 -0.0489379 1.87825 0.146519 1.52642C0.303075 1.17482 0.637386 1.00006 1.14554 1.00006H10.7061Z" fill="#0C0F14"/>
<path d="M84.6991 1C85.09 1.00005 85.4208 1.13813 85.6945 1.41178C85.9682 1.68545 86.1062 2.01631 86.1063 2.40723V10.3851C86.1063 10.7762 85.9683 11.1103 85.6945 11.3841C85.421 11.6571 85.0896 11.7958 84.6991 11.7959H66.4553C66.0644 11.7959 65.7299 11.9306 65.4562 12.2041C65.1825 12.4779 65.0444 12.812 65.0444 13.2031V15.6667C65.0445 16.0573 65.183 16.3886 65.4562 16.6621C65.73 16.9359 66.0641 17.0739 66.4553 17.0739H82.3537C82.7441 17.0742 83.0757 17.2123 83.3491 17.4857C83.6225 17.7591 83.7606 18.0906 83.7609 18.4811V26.5772C83.7609 26.9683 83.6229 27.3024 83.3491 27.5762C83.0758 27.8493 82.7439 27.9876 82.3537 27.988H66.4553C66.0644 27.988 65.7299 28.1227 65.4562 28.3962C65.1825 28.6699 65.0444 29.0041 65.0444 29.3952V31.6224C65.0444 32.0135 65.1825 32.3476 65.4562 32.6214C65.73 32.895 66.0643 33.0332 66.4553 33.0332H84.6991C85.0895 33.0333 85.421 33.1686 85.6945 33.4414C85.9683 33.7152 86.1063 34.0493 86.1063 34.4404V42.5365C86.1061 42.9272 85.9681 43.2583 85.6945 43.5319C85.4208 43.8054 85.09 43.9436 84.6991 43.9437H54.8358C54.4454 43.9433 54.1137 43.8053 53.8404 43.5319C53.5671 43.2584 53.4287 42.927 53.4286 42.5365V2.40723C53.4287 2.01661 53.5671 1.68533 53.8404 1.41178C54.1137 1.13841 54.4454 1.0004 54.8358 1H84.6991Z" fill="#0C0F14"/>
<path fill-rule="evenodd" clip-rule="evenodd" d="M114.132 1C116.4 1.00014 118.493 1.39239 120.409 2.17448C122.325 2.91756 123.95 3.97125 125.279 5.33984C126.648 6.70846 127.702 8.33279 128.445 10.2096C129.227 12.087 129.619 14.1609 129.619 16.4294C129.619 17.6803 129.463 18.9311 129.15 20.182C128.876 21.3942 128.466 22.5496 127.918 23.6445C127.371 24.7396 126.724 25.7385 125.981 26.638C125.238 27.4978 124.398 28.2216 123.46 28.8079C123.147 29.0426 122.933 29.3368 122.816 29.6888C122.738 30.0015 122.814 30.3143 123.048 30.627C124.534 32.5823 126.1 34.595 127.743 36.6676C129.385 38.7405 130.853 40.6401 132.143 42.361C132.377 42.6735 132.436 43.0269 132.319 43.4173C132.202 43.7682 131.946 43.9434 131.556 43.9437H120.642C120.251 43.9435 119.822 43.8453 119.353 43.6501C118.923 43.4154 118.589 43.1429 118.354 42.8301C117.103 41.1875 115.853 39.5238 114.601 37.8421C113.389 36.1606 112.176 34.4602 110.963 32.7396C110.729 32.4267 110.395 32.1724 109.964 31.9769C109.534 31.7424 109.124 31.6224 108.733 31.6224H107.444C107.053 31.6224 106.718 31.7604 106.445 32.0342C106.171 32.3078 106.036 32.6424 106.036 33.0332V42.5365C106.036 42.927 105.898 43.2584 105.625 43.5319C105.351 43.8057 105.017 43.9437 104.626 43.9437H95.885C95.4943 43.9435 95.1631 43.8055 94.8896 43.5319C94.616 43.2583 94.478 42.9272 94.4778 42.5365V2.40723C94.4779 2.01641 94.616 1.68541 94.8896 1.41178C95.1631 1.13821 95.4943 1.00021 95.885 1H114.132ZM107.444 11.7959C107.053 11.7959 106.718 11.9303 106.445 12.2041C106.171 12.4778 106.036 12.8121 106.036 13.2031V19.4193C106.036 19.8101 106.171 20.1446 106.445 20.4183C106.718 20.6921 107.053 20.8301 107.444 20.8301H113.663C114.132 20.8299 114.62 20.7499 115.128 20.5938C115.636 20.3984 116.105 20.1253 116.535 19.7738C116.965 19.3831 117.318 18.9134 117.591 18.3665C117.865 17.8191 118.003 17.1723 118.003 16.4294C118.003 16.0382 117.923 15.5879 117.767 15.0794C117.649 14.5321 117.417 14.0232 117.065 13.554C116.752 13.0456 116.302 12.6351 115.715 12.3223C115.168 11.9705 114.484 11.7961 113.663 11.7959H107.444Z" fill="#0C0F14"/>
<path d="M148.067 15.724C148.457 15.724 148.789 15.8625 149.062 16.1357C149.336 16.4095 149.474 16.7437 149.474 17.1348V42.5365C149.474 42.9272 149.336 43.2583 149.062 43.5319C148.789 43.8055 148.458 43.9436 148.067 43.9437H139.534C139.104 43.9437 138.752 43.8057 138.478 43.5319C138.244 43.2584 138.127 42.9269 138.127 42.5365V17.1348C138.127 16.7437 138.243 16.4095 138.478 16.1357C138.752 15.862 139.104 15.724 139.534 15.724H148.067Z" fill="#0C0F14"/>
<g clip-path="url(#clip0_639_1900)">
<path d="M143.732 0C146.898 0.000228196 149.464 2.56677 149.464 5.73242C149.464 8.898 146.898 11.4646 143.732 11.4648C140.567 11.4648 138 8.89814 138 5.73242C138 2.56663 140.567 0 143.732 0Z" fill="#391BE2"/>
<circle cx="143.75" cy="5.75" r="5.75" fill="url(#paint0_linear_639_1900)" fill-opacity="0.5"/>
<g clip-path="url(#clip1_639_1900)">
<g filter="url(#filter0_f_639_1900)">
<path d="M142.497 1.57855C142.507 1.53903 142.527 1.5027 142.555 1.47321C142.583 1.44371 142.618 1.42207 142.657 1.41045C142.696 1.39883 142.737 1.39763 142.777 1.40697C142.816 1.41632 142.853 1.43588 142.882 1.4637L143.636 2.1707L144.666 2.09178C144.707 2.0887 144.748 2.09631 144.784 2.11383C144.821 2.13135 144.853 2.15819 144.876 2.19166C144.899 2.22513 144.913 2.26407 144.916 2.30459C144.919 2.34511 144.912 2.3858 144.895 2.4226L144.455 3.3578L144.849 4.31329C144.864 4.35091 144.87 4.39195 144.864 4.43229C144.859 4.47263 144.843 4.51088 144.818 4.54321C144.794 4.57554 144.761 4.60082 144.723 4.61652C144.686 4.63223 144.645 4.63781 144.604 4.63272L143.579 4.50349L142.792 5.17318C142.761 5.19955 142.724 5.21733 142.684 5.22475C142.644 5.23217 142.602 5.22896 142.564 5.21545C142.526 5.20193 142.491 5.17859 142.465 5.14774C142.438 5.11689 142.42 5.07962 142.413 5.03965L142.219 4.02461L141.339 3.48307C141.304 3.46176 141.276 3.43173 141.256 3.39597C141.237 3.36022 141.227 3.32 141.228 3.27932C141.229 3.23865 141.241 3.19894 141.262 3.16416C141.283 3.12938 141.313 3.10076 141.349 3.08114L142.254 2.5828L142.497 1.57855Z" fill="#0CE19A"/>
</g>
</g>
</g>
<defs>
<filter id="filter0_f_639_1900" x="140.538" y="0.710804" width="5.06838" height="5.20779" filterUnits="userSpaceOnUse" color-interpolation-filters="sRGB">
<feFlood flood-opacity="0" result="BackgroundImageFix"/>
<feBlend mode="normal" in="SourceGraphic" in2="BackgroundImageFix" result="shape"/>
<feGaussianBlur stdDeviation="0.344915" result="effect1_foregroundBlur_639_1900"/>
</filter>
<linearGradient id="paint0_linear_639_1900" x1="143.75" y1="0" x2="143.75" y2="11.5" gradientUnits="userSpaceOnUse">
<stop stop-color="#D9D9D9"/>
<stop offset="1" stop-color="#D9D9D9" stop-opacity="0"/>
</linearGradient>
<clipPath id="clip0_639_1900">
<rect width="11.5" height="11.5" fill="white" transform="translate(138)"/>
</clipPath>
<clipPath id="clip1_639_1900">
<rect width="4.46609" height="4.46609" fill="white" transform="translate(140.397 1.64795) rotate(-16.6035)"/>
</clipPath>
</defs>
</svg>
